<svg width="512" height="512" viewBox="0 0 512 512" xmlns="http://www.w3.org/2000/svg">
  <!-- Background -->
  <rect width="512" height="512" fill="#000000"/>
  
  <!-- JusGor Logo - "Jus" in orange with rounded font -->
  <text x="100" y="220" font-family="Arial, sans-serif" font-size="90" font-weight="bold" fill="#ff6b35" style="letter-spacing: -2px;">Jus</text>
  
  <!-- Green leaves above 'u' - more natural looking -->
  <ellipse cx="180" cy="170" rx="12" ry="8" fill="#00ff00" transform="rotate(-15 180 170)"/>
  <ellipse cx="195" cy="160" rx="8" ry="6" fill="#00ff00" transform="rotate(15 195 160)"/>
  
  <!-- "Gor!" text in white with red circle background -->
  <circle cx="350" cy="220" r="70" fill="#ff0000"/>
  <text x="350" y="235" font-family="Arial, sans-serif" font-size="65" font-weight="bold" text-anchor="middle" fill="#ffffff" style="letter-spacing: -1px;">Gor!</text>
  
  <!-- Arrow from 'r' - more stylized -->
  <path d="M 420 220 L 450 220 L 440 210 M 450 220 L 440 230" stroke="#ffffff" stroke-width="6" fill="none" stroke-linecap="round" stroke-linejoin="round"/>
  
  <!-- POS indicator with better styling -->
  <rect x="200" y="300" width="120" height="35" rx="17" fill="#ff6b35"/>
  <text x="260" y="320" font-family="Arial, sans-serif" font-size="20" font-weight="bold" text-anchor="middle" fill="#ffffff">POS</text>
  
  <!-- Cash register - more detailed -->
  <rect x="220" y="360" width="100" height="60" rx="8" fill="#333333"/>
  <rect x="230" y="370" width="80" height="25" rx="4" fill="#000000"/>
  <rect x="240" y="375" width="60" height="8" fill="#00ff00"/>
  <rect x="240" y="385" width="40" height="4" fill="#ffffff"/>
  
  <!-- Buttons with better spacing -->
  <circle cx="240" cy="420" r="6" fill="#ff0000"/>
  <circle cx="255" cy="420" r="6" fill="#ffff00"/>
  <circle cx="270" cy="420" r="6" fill="#00ff00"/>
  <circle cx="285" cy="420" r="6" fill="#0066ff"/>
</svg>
