<svg width="512" height="512" viewBox="0 0 512 512" xmlns="http://www.w3.org/2000/svg">
  <!-- Background -->
  <rect width="512" height="512" fill="#000000"/>
  
  <!-- JusGor Logo -->
  <!-- "Jus" text in orange -->
  <text x="80" y="200" font-family="Arial, sans-serif" font-size="80" font-weight="bold" fill="#ff6b35">Jus</text>
  
  <!-- Green leaves above 'u' -->
  <circle cx="140" cy="160" r="8" fill="#00ff00"/>
  <circle cx="150" cy="155" r="6" fill="#00ff00"/>
  
  <!-- "Gor!" text in white with red circle background -->
  <circle cx="320" cy="200" r="60" fill="#ff0000"/>
  <text x="320" y="210" font-family="Arial, sans-serif" font-size="60" font-weight="bold" text-anchor="middle" fill="#ffffff">Gor!</text>
  
  <!-- Arrow from 'r' -->
  <path d="M 380 200 L 420 200 L 410 190 M 420 200 L 410 210" stroke="#ffffff" stroke-width="4" fill="none" stroke-linecap="round"/>
  
  <!-- POS indicator -->
  <rect x="180" y="280" width="150" height="40" rx="20" fill="#ff6b35"/>
  <text x="255" y="305" font-family="Arial, sans-serif" font-size="24" font-weight="bold" text-anchor="middle" fill="#ffffff">POS</text>
  
  <!-- Cash register elements -->
  <rect x="200" y="350" width="120" height="80" rx="10" fill="#333333"/>
  <rect x="210" y="360" width="100" height="30" rx="5" fill="#000000"/>
  <rect x="220" y="370" width="80" height="10" fill="#00ff00"/>
  
  <!-- Buttons -->
  <circle cx="230" cy="420" r="8" fill="#ff0000"/>
  <circle cx="250" cy="420" r="8" fill="#ffff00"/>
  <circle cx="270" cy="420" r="8" fill="#00ff00"/>
  <circle cx="290" cy="420" r="8" fill="#0066ff"/>
</svg>
